HIERARCHY
ROOT SpineBase
{
  OFFSET 0.000000 0.000000 0.000000
  CHANNELS 6 Xposition Yposition Zposition Zrotation Xrotation Yrotation
  JOINT SpineMid
  {
    OFFSET 0.000000 27.446980 0.000000
    CHANNELS 3 Zrotation Xrotation Yrotation
    JOINT SpineShoulder
    {
      OFFSET 0.163745 20.685364 -0.776425
      CHANNELS 3 Zrotation Xrotation Yrotation
      JOINT Neck
      {
        OFFSET 0.116776 6.955166 -0.566914
        CHANNELS 3 Zrotation Xrotation Yrotation
        JOINT Head
        {
          OFFSET 2.862938 14.075854 -0.366972
          CHANNELS 3 Zrotation Xrotation Yrotation
          End Site
          {
            OFFSET 0 0 0
          }
        }
      }
      JOINT ShoulderLeft
      {
        OFFSET -9.423643 -0.523829 -9.438529
        CHANNELS 3 Zrotation Xrotation Yrotation
        JOINT ElbowLeft
        {
          OFFSET -3.029649 -19.147325 -6.718332
          CHANNELS 3 Zrotation Xrotation Yrotation
          JOINT WristLeft
          {
            OFFSET 12.370452 -13.712967 -11.216820
            CHANNELS 3 Zrotation Xrotation Yrotation
            JOINT HandLeft
            {
              OFFSET 2.897135 -2.358754 -3.063783
              CHANNELS 3 Zrotation Xrotation Yrotation
              JOINT HandTipLeft
              {
                OFFSET 2.258028 -1.602390 -4.458611
                CHANNELS 3 Zrotation Xrotation Yrotation
                End Site
                {
                  OFFSET 0 0 0
                }
              }
              JOINT ThumbLeft
              {
                OFFSET 4.437412 1.596625 -3.884117
                CHANNELS 3 Zrotation Xrotation Yrotation
                End Site
                {
                  OFFSET 0 0 0
                }
              }
            }
          }
        }
      }
      JOINT ShoulderRight
      {
        OFFSET 15.302195 -1.608921 8.485117
        CHANNELS 3 Zrotation Xrotation Yrotation
        JOINT ElbowRight
        {
          OFFSET 8.111986 -23.322933 5.411240
          CHANNELS 3 Zrotation Xrotation Yrotation
          JOINT WristRight
          {
            OFFSET 17.578263 -18.351233 -1.468615
            CHANNELS 3 Zrotation Xrotation Yrotation
            JOINT HandRight
            {
              OFFSET 7.255965 -4.186337 0.412171
              CHANNELS 3 Zrotation Xrotation Yrotation
              JOINT HandTipRight
              {
                OFFSET 5.267967 -2.724978 -3.547763
                CHANNELS 3 Zrotation Xrotation Yrotation
                End Site
                {
                  OFFSET 0 0 0
                }
              }
              JOINT ThumbRight
              {
                OFFSET 0.979367 2.618258 3.003405
                CHANNELS 3 Zrotation Xrotation Yrotation
                End Site
                {
                  OFFSET 0 0 0
                }
              }
            }
          }
        }
      }
    }
  }
  JOINT HipLeft
  {
    OFFSET -5.298095 1.669946 -5.815780
    CHANNELS 3 Zrotation Xrotation Yrotation
    JOINT KneeLeft
    {
      OFFSET 14.648222 6.068577 -27.363631
      CHANNELS 3 Zrotation Xrotation Yrotation
      JOINT AnkleLeft
      {
        OFFSET 9.976741 -33.110923 -1.292901
        CHANNELS 3 Zrotation Xrotation Yrotation
        JOINT FootLeft
        {
          OFFSET 3.164247 -5.264689 -5.727439
          CHANNELS 3 Zrotation Xrotation Yrotation
          End Site
          {
            OFFSET 0 0 0
          }
        }
      }
    }
  }
  JOINT HipRight
  {
    OFFSET 5.965736 1.334103 0.036467
    CHANNELS 3 Zrotation Xrotation Yrotation
    JOINT KneeRight
    {
      OFFSET 30.196329 3.262760 -8.409763
      CHANNELS 3 Zrotation Xrotation Yrotation
      JOINT AnkleRight
      {
        OFFSET -2.703299 -29.102723 -12.670937
        CHANNELS 3 Zrotation Xrotation Yrotation
        JOINT FootRight
        {
          OFFSET 6.304154 -1.859273 -10.983716
          CHANNELS 3 Zrotation Xrotation Yrotation
          End Site
          {
            OFFSET 0 0 0
          }
        }
      }
    }
  }
}
MOTION
Frames: 14
Frame Time: 0.033333
-34.709595 33.104471 349.532260 8.218107 3.004561 -36.062828 -0.431796 0.036477 36.088788 0.241452 -0.260413 0.369195 -0.380444 -7.491029 1.015815 0.000000 0.000000 0.000000 31.127161 6.775327 -18.479173 5.241217 4.172633 -2.228411 -14.509406 14.384752 8.898572 -8.584981 -26.028674 -33.767287 0.000000 0.000000 0.000000 0.000000 0.000000 0.000000 10.161101 11.440446 6.963271 -34.767988 52.177688 65.181090 -10.221854 -14.781461 18.397264 -3.381026 -10.580466 -30.126825 0.000000 0.000000 0.000000 0.000000 0.000000 0.000000 -2.336864 -13.709794 42.526118 1.411936 3.774907 -7.388108 -10.505263 13.642464 19.954698 0.000000 0.000000 0.000000 -5.858153 -10.448654 45.236963 1.724210 1.203793 -9.312123 2.950101 3.142461 -2.156792 0.000000 0.000000 0.000000
-34.751971 33.062648 349.602257 8.219438 2.857937 -36.285302 -0.374918 0.099607 36.327400 0.285725 -0.280163 0.380773 -0.059696 -7.406107 1.060430 0.000000 0.000000 0.000000 30.394596 6.018392 -17.891697 5.497903 6.164742 -2.596475 -16.598392 12.722616 10.043748 -6.319680 -25.200222 -35.028218 0.000000 0.000000 0.000000 0.000000 0.000000 0.000000 10.361101 9.655084 6.579014 -36.798073 53.888520 67.929806 -8.798107 -16.264910 18.626521 -8.400516 -11.055199 -36.031283 0.000000 0.000000 0.000000 0.000000 0.000000 0.000000 -2.380773 -13.686060 42.651417 1.343809 4.065697 -7.198176 -6.798670 12.347327 14.982521 0.000000 0.000000 0.000000 -5.866789 -10.313526 45.531130 1.714010 1.218786 -9.382826 2.937893 3.073567 -2.403136 0.000000 0.000000 0.000000
-34.872114 33.020776 349.678361 8.124812 2.713468 -36.448236 -0.285804 0.181358 36.507606 0.293055 -0.289247 0.384469 0.211471 -7.300862 1.089485 0.000000 0.000000 0.000000 29.749040 4.992586 -17.170482 5.993427 8.883580 -3.139036 -16.119421 10.152211 8.410580 -4.592863 -25.020994 -36.592607 0.000000 0.000000 0.000000 0.000000 0.000000 0.000000 10.824807 9.717860 6.598049 -36.387626 54.976693 68.223534 -9.245580 -17.294571 17.115222 -12.978319 -7.266195 -36.156806 0.000000 0.000000 0.000000 0.000000 0.000000 0.000000 -2.401580 -13.583696 42.574012 1.301819 4.191040 -6.908926 -2.962105 10.455116 9.608269 0.000000 0.000000 0.000000 -5.803539 -10.109685 45.762805 1.696960 1.209574 -9.441118 2.914452 3.006845 -2.676173 0.000000 0.000000 0.000000
-35.043280 32.993593 349.761259 7.978722 2.573714 -36.553519 -0.202153 0.286303 36.627466 0.297651 -0.271348 0.383290 0.255418 -7.184612 1.077997 0.000000 0.000000 0.000000 29.543741 4.028669 -16.644974 6.303240 11.076518 -3.663314 -13.926924 9.523357 6.221818 -5.481874 -25.917810 -36.662811 0.000000 0.000000 0.000000 0.000000 0.000000 0.000000 12.152846 12.759926 7.298629 -35.824024 52.923369 64.633741 -3.700430 -21.063886 19.877849 -20.378224 -1.267136 -37.633041 0.000000 0.000000 0.000000 0.000000 0.000000 0.000000 -2.416635 -13.446344 42.349471 1.336775 4.179848 -6.577415 -1.276726 9.447719 7.155851 0.000000 0.000000 0.000000 -5.724218 -9.898560 45.935153 1.723224 1.208179 -9.503353 2.870709 2.933681 -2.913911 0.000000 0.000000 0.000000
-35.123055 32.992350 349.834223 8.005796 2.475258 -36.823639 -0.226493 0.315521 36.902728 0.291069 -0.233959 0.380847 0.235342 -7.212803 1.088262 0.000000 0.000000 0.000000 30.649313 3.632085 -16.961653 5.874665 12.377369 -3.633783 -11.117217 9.811402 3.889536 -6.136026 -25.708264 -35.445441 0.000000 0.000000 0.000000 0.000000 0.000000 0.000000 14.308093 16.529959 8.162236 -36.973755 49.978876 60.327309 -0.406430 -22.503774 22.071571 -23.302176 1.953387 -36.544184 0.000000 0.000000 0.000000 0.000000 0.000000 0.000000 -2.464907 -13.430858 42.474240 1.404717 3.925905 -6.516623 -1.675014 10.497639 8.030383 0.000000 0.000000 0.000000 -5.760850 -9.893975 46.318490 1.741197 1.273326 -9.605927 2.910945 2.859210 -3.108833 0.000000 0.000000 0.000000
-35.254398 32.985739 349.878442 7.927033 2.457481 -36.813299 -0.173347 0.370760 36.896216 0.273610 -0.150447 0.371372 0.292906 -7.311114 1.107695 0.000000 0.000000 0.000000 30.340750 3.142940 -16.570920 6.024910 13.203899 -3.841274 -4.909534 10.485762 -0.439061 -13.773104 -31.910293 -34.563461 0.000000 0.000000 0.000000 0.000000 0.000000 0.000000 16.724378 20.463412 8.981864 -38.201725 46.479615 54.722953 1.981039 -20.499568 26.518693 -26.241905 6.120047 -34.353725 0.000000 0.000000 0.000000 0.000000 0.000000 0.000000 -2.491360 -13.318983 42.203609 1.588924 3.287225 -6.458299 -4.915103 13.176824 12.822611 0.000000 0.000000 0.000000 -5.722217 -9.860499 46.348365 1.695613 1.279260 -9.603426 3.005194 2.853838 -3.290915 0.000000 0.000000 0.000000
-35.258054 32.986174 349.891202 8.018561 2.519473 -36.919208 -0.206557 0.341238 36.996240 0.215417 -0.061510 0.358922 0.412318 -7.644065 1.188356 0.000000 0.000000 0.000000 29.020059 2.490748 -15.671506 7.238206 13.955759 -4.644472 2.922482 11.026184 -5.848418 -20.368772 -37.375422 -32.972557 0.000000 0.000000 0.000000 0.000000 0.000000 0.000000 19.152286 24.819797 9.736335 -40.562198 43.151095 49.687728 1.705790 -19.693769 26.898473 -30.284244 9.952685 -29.953345 0.000000 0.000000 0.000000 0.000000 0.000000 0.000000 -2.542500 -13.287838 42.259248 1.786188 2.352146 -6.695254 -10.364121 16.437547 20.515941 0.000000 0.000000 0.000000 -5.767620 -10.037063 46.536792 1.673267 1.324922 -9.663743 3.114178 2.873111 -3.322954 0.000000 0.000000 0.000000
-35.290266 32.991168 349.866432 7.979647 2.660483 -36.856539 -0.115781 0.332406 36.930752 0.218912 0.020547 0.352669 0.645376 -7.975630 1.281806 0.000000 0.000000 0.000000 28.077435 2.183226 -15.127864 9.164553 14.156303 -5.816607 8.059970 12.819031 -9.185926 -27.781396 -45.904238 -35.520918 0.000000 0.000000 0.000000 0.000000 0.000000 0.000000 21.325494 29.150710 10.322531 -42.337672 38.981170 42.798889 -3.357167 -13.347741 28.605530 -31.733365 11.264829 -24.434188 0.000000 0.000000 0.000000 0.000000 0.000000 0.000000 -2.489099 -13.295830 42.066825 1.576360 2.417291 -6.514851 -12.255451 15.902746 22.929707 0.000000 0.000000 0.000000 -5.697235 -10.174197 46.478873 1.631996 1.367666 -9.634085 3.226005 2.896696 -3.267167 0.000000 0.000000 0.000000
-35.434077 32.983771 349.839447 7.688916 2.803299 -36.413227 0.098075 0.418035 36.490796 0.270778 0.105107 0.347065 1.032229 -8.347299 1.406418 0.000000 0.000000 0.000000 25.151201 1.264239 -13.505882 12.247922 14.762365 -7.718944 9.790905 13.055674 -10.473890 -33.829792 -50.960313 -37.263564 0.000000 0.000000 0.000000 0.000000 0.000000 0.000000 22.928347 32.844555 10.738948 -42.972312 35.868990 37.238826 -7.793526 -8.998125 29.669565 -28.226570 8.823864 -20.337928 0.000000 0.000000 0.000000 0.000000 0.000000 0.000000 -2.367953 -13.204516 41.257188 1.997370 1.567649 -6.438671 -19.307355 13.887782 30.799111 0.000000 0.000000 0.000000 -5.475630 -10.094522 45.999938 1.536960 1.405891 -9.529332 3.304435 2.904945 -2.979771 0.000000 0.000000 0.000000
-35.594361 32.974026 349.844305 7.381811 2.884120 -35.894440 0.297631 0.526844 35.977968 0.348082 0.189431 0.343924 1.318942 -8.670506 1.512996 0.000000 0.000000 0.000000 23.702288 0.604646 -12.643124 14.861034 15.230216 -9.460673 8.957719 13.656527 -10.071826 -39.661696 -55.394850 -41.698895 0.000000 0.000000 0.000000 0.000000 0.000000 0.000000 23.812982 35.499305 11.011416 -43.064871 34.063075 33.993873 -12.778010 -6.552649 27.092375 -21.403132 4.064773 -13.669385 0.000000 0.000000 0.000000 0.000000 0.000000 0.000000 -2.287410 -12.957722 40.428897 1.751237 1.872316 -5.983643 -19.251277 16.817879 32.244451 0.000000 0.000000 0.000000 -5.275910 -9.939150 45.474202 1.397204 1.456536 -9.432504 3.387930 2.900057 -2.592772 0.000000 0.000000 0.000000
-35.712561 32.964049 349.838194 7.126060 2.970154 -35.445166 0.456599 0.581498 35.532671 0.413371 0.247550 0.341451 1.703424 -8.881570 1.608469 0.000000 0.000000 0.000000 21.017088 -0.188553 -11.287525 17.141690 15.196742 -10.931273 8.305373 12.870468 -9.909726 -43.721576 -57.389378 -42.869567 0.000000 0.000000 0.000000 0.000000 0.000000 0.000000 23.732317 36.663471 11.200618 -43.512507 33.336632 33.236925 -15.067272 -6.608717 23.235555 -15.752310 -0.926855 -12.032156 0.000000 0.000000 0.000000 0.000000 0.000000 0.000000 -2.190707 -12.788855 39.784766 1.517750 2.150416 -5.661052 -18.520865 18.877786 32.388945 0.000000 0.000000 0.000000 -5.101688 -9.819844 44.978676 1.333345 1.456908 -9.340098 3.380369 2.929947 -2.162877 0.000000 0.000000 0.000000
-35.874619 32.924359 349.794805 6.838185 3.089195 -35.012015 0.606578 0.601645 35.101423 0.460202 0.267397 0.337946 2.144505 -9.095745 1.717268 0.000000 0.000000 0.000000 19.095213 -1.242153 -10.129153 19.690060 16.034787 -12.733911 6.708296 9.316704 -9.952367 -36.993979 -53.308836 -36.342311 0.000000 0.000000 0.000000 0.000000 0.000000 0.000000 23.935869 36.891036 11.273293 -44.240920 32.462927 31.999750 -13.532914 -6.533714 25.735992 -9.675100 -4.872859 -14.197947 0.000000 0.000000 0.000000 0.000000 0.000000 0.000000 -2.058903 -12.626415 39.094578 1.360828 2.300236 -5.318119 -16.486557 20.151263 30.443217 0.000000 0.000000 0.000000 -4.848970 -9.640286 44.361589 1.288205 1.400763 -9.147547 3.286420 2.955194 -1.810810 0.000000 0.000000 0.000000
-35.974847 32.871452 349.727484 6.669472 3.210185 -34.593264 0.668071 0.552015 34.679944 0.480296 0.242923 0.335819 2.593296 -9.272738 1.825445 0.000000 0.000000 0.000000 17.803907 -2.177491 -9.269456 21.880294 16.850723 -14.384015 4.596474 4.793249 -10.037520 -27.657083 -44.271455 -28.634332 0.000000 0.000000 0.000000 0.000000 0.000000 0.000000 24.273252 36.423752 11.240104 -44.862409 32.742104 32.233593 -11.823541 -7.763412 25.660945 -7.461599 -5.411760 -14.021895 0.000000 0.000000 0.000000 0.000000 0.000000 0.000000 -1.993643 -12.482759 38.547080 1.159956 2.369135 -5.121694 -13.216736 21.102152 26.854160 0.000000 0.000000 0.000000 -4.689416 -9.529831 43.730112 1.266861 1.328188 -8.951019 3.173042 2.995279 -1.485041 0.000000 0.000000 0.000000
-35.931134 32.819746 349.646864 6.776242 3.309580 -34.414930 0.558980 0.434060 34.489496 0.499802 0.193343 0.339821 2.791605 -9.312865 1.862085 0.000000 0.000000 0.000000 18.095259 -2.623708 -9.186882 22.693456 17.371384 -15.260382 2.721839 0.184888 -10.458296 -17.416745 -24.836851 -21.277191 0.000000 0.000000 0.000000 0.000000 0.000000 0.000000 23.983194 36.572926 11.301980 -44.969672 32.914748 32.835001 -9.984402 -10.634553 22.677470 -3.826934 -7.691735 -15.491693 0.000000 0.000000 0.000000 0.000000 0.000000 0.000000 -2.058056 -12.423516 38.499741 1.007378 2.370619 -5.213183 -8.831083 19.818464 20.943750 0.000000 0.000000 0.000000 -4.720599 -9.567144 43.341561 1.268938 1.263394 -8.797141 3.051614 3.047218 -1.212743 0.000000 0.000000 0.000000
